<?xml version="1.0" encoding="UTF-8"?><svg id="uuid-da13a838-15d1-44d5-b684-12cd05e59c04" xmlns="http://www.w3.org/2000/svg" xmlns:xlink="http://www.w3.org/1999/xlink" viewBox="0 0 1598.04 900.69"><defs><linearGradient id="uuid-63cd2611-ec84-4f70-9576-65560f17023f" x1="0" y1="450.34" x2="1598.04" y2="450.34" gradientUnits="userSpaceOnUse"><stop offset="0" stop-color="#0800a5"/><stop offset="1" stop-color="#39369b"/></linearGradient><linearGradient id="uuid-786901b3-790b-44a4-91f0-c2ee667baef0" x1="972.95" y1="263.5" x2="1284.09" y2="263.5" gradientTransform="translate(0 902) scale(1 -1)" gradientUnits="userSpaceOnUse"><stop offset="0" stop-color="#ffd847"/><stop offset="1" stop-color="#faac18"/></linearGradient></defs><g id="uuid-fe0d1a51-471e-443d-8b77-20d81587fa5d"><path d="M1577.3,871.06c-23.8-23.21-36.42-51.17-44.41-83.51-27.16-110.03-56.87-219.44-84.98-329.27-3.96-15.45-10.73-27.2-23.38-37.31-29.09-23.22-54.71-48.24-70.37-84.47-35.56-82.33-75.45-162.81-113.44-244.08-11.77-25.13-11.46-25.11-29.6-3.76-16.45,19.35-29.94,48.57-50.63,55.21-29.81,9.59-37.23,30.87-49.07,51.93-5.12,9.08-11.13,15.76-21.75,13.49-27.61-5.91-41.77,11.21-55.5,30.28-4.27,5.95-7.98,13.16-16.88,15.43-4.6-12.69-6.24-33.62-14.23-36.4-29.93-10.39-36.72-38.32-52.27-59.2-9.01-12.1-15.76-23.69-33.51-20.23-10.55,2.06-14.64-5.51-18.32-13.74-9.66-21.64-19.67-43.13-29.63-64.64-8.96-19.33-18.02-38.59-28.38-60.79-15.6,21.76-24.68,47.94-41.9,55.42-27.28,11.82-32.77,34.01-43.38,54.89-16.11,31.69-31.96,63.54-46.65,95.92-6.61,14.57-14.05,23.85-31.87,21.85-17-1.93-27.36,7.22-35.69,22.19-9.99,18.04-19.09,37.15-36.3,54.32-11.98-32.43-30.73-51.76-66.71-44.78-12.52,2.43-14.29-9.23-17.24-17.91-13.66-40.05-27.74-79.94-40.68-120.2-4.54-14.18-9.69-14.36-20.84-6.33-46.16,33.26-92.53,65.89-114.87,121.7-4.97,12.43-14.79,22.92-19.96,35.29-7.05,16.88-18.72,22.56-35.89,20.54-17.49-2.07-26.91,5.08-33.81,22.36-40.76,102.16-80.5,204.87-125.36,305.27-41.54,92.98-62.26,195.99-129.8,277.5,3.96,4.37,10.31,2.03,15.85,2.05,183.29.2,366.6.13,549.91.54,11.98.04,20.45-3.62,29.15-11.64,89.79-82.67,180.7-164.16,269.46-247.89,19.46-18.36,29.67-15.17,46.88.74,1.23,1.14,2.46,2.27,3.69,3.41,75.7,69.96,152.09,139.17,228.49,208.38,10.31,9.34,20.61,18.67,30.92,28.01,7.73,6.99,14,14.94,27.6,14.9,117.93-.38,235.88.58,353.82.69,12.99.01,26.4,4.5,42.27-1.27-7.98-9.67-13.66-17.99-20.74-24.89h0ZM806.97,202.7c1.19-26.16,2.2-52.41,1.19-78.55-.63-16.25,9.66-20.43,21.01-23.49,13.13-3.57,11.31,9.72,14.43,15.98,6.77,13.56,12.61,27.72,17.33,42.13,5.86,17.88,14.72,29.84,36.01,26.41,12.52-2.01,17.6,7.52,23.12,16.2,26.53,41.94,63.68,78.44,67.23,132.13.56,8.25,6.76,13,14.52,15.96,7.1,2.7,13.84,6.36,20.7,9.66,47.69,22.79,55.22,31.7,75.94,93.5-18.67-13.86-33.58-23.57-46.91-35.12-42.13-36.48-89.25-63.79-142.78-79.52-14.81-4.34-22.59-12.81-25.67-27.63-2.4-11.51-7.59-22.45-10.02-33.98-6.1-28.97-17.04-52.53-51.76-54.48-11.49-.65-14.84-7.91-14.34-19.2h0ZM432.1,260.17c5.25-19.41,11.35-38.56,17.07-57.82,1.8-.36,3.58-.72,5.38-1.06,10.87,28.25,22.59,56.21,32.29,84.87,5.18,15.35,13.71,23.62,29.45,19.84,36.36-8.74,45.73,19.17,59.42,41.74,3.56,5.84,2.84,10.93-.53,16.5-4.81,7.96-11.38,15.69-13.34,24.38-9.63,42.78-46.25,38.75-76.7,45.07-9.73,2.02-9.67-8.02-11.64-13.62-8.99-25.51-17.2-51.27-25.81-76.92-1.88-5.59-2.54-13.62-6.54-16.13-30.47-18.99-15.33-43.54-9.05-66.85h0ZM1273.02,818.58c-9.06,1.15-17.4,2-25.24,1.96-.6,0-1.17,0-1.77-.02-9.68-.12-18.62-1.63-27.27-5.66-3.91-1.81-7.76-4.14-11.59-7.09-2.25-1.73-4.48-3.68-6.73-5.86-74.64-72.44-150.72-143.42-226.21-215-8.36-7.92-16.71-15.85-25.05-23.8-12.63-12.02-25.24-24.08-37.82-36.17-8.74-8.41-15.55-12.86-22.45-13.06-6.76.2-13.66,4.47-22.61,13.13-95.52,92.53-193.04,182.99-289.13,274.92-15.95,15.28-31.91,23.1-53.96,23.33-.5,0-1.01,0-1.53.02-.44,0-.89,0-1.33-.01-.77-.01-1.55-.02-2.34-.04-8.11-.24-16.2-.44-24.31-.6-8.12-.14-16.23-.25-24.36-.32-44.44-.38-89.21.28-135.09.3h-1c.16-1.54.43-2.96.79-4.27.18-.66.38-1.28.6-1.89.22-.6.45-1.18.71-1.73.25-.55.53-1.09.81-1.6,3.16-5.62,8.13-8.74,11.9-12.36,107.12-102.47,214.55-204.64,321.53-307.26,10.84-10.41,21.83-15.11,36.8-14.99h.72c.58,0,1.16,0,1.75.02,16.88.45,33.75.85,50.61,1.21,5.73.13,11.47.23,17.2.32,7.64.13,15.28.26,22.94.36,3.26.06,6.52.09,9.8.13,9.98.14,19.96.27,29.94.36,3.21.04,6.43.07,9.66.09,13.36.13,26.75.22,40.12.29,2.3.02,4.63.02,6.93.03h.99c12.88.06,22.34,3.95,31.6,12.62,14.66,13.71,29.47,27.25,44.32,40.74,33.04-30.34,77.11-48.85,125.5-48.85,102.53,0,185.64,83.11,185.64,185.64,0,43.76-15.14,83.98-40.46,115.71,9.38,9.37,19.08,19.07,29.39,29.4h0ZM1467.44,737.51c-10.82-1.91-13.8-11.88-18.93-18.85-46.81-63.29-93.05-126.97-139.82-190.28-7.71-10.43-14.99-21.18-15.76-33.99-2.17-36.32-21.82-60.77-51.35-78.95-18.88-11.62-27.44-27.42-27.18-50.26.27-24.41-3.26-48.88-5.37-73.29-1.17-13.51-1.57-27.51-19.77-30.5-9.92-1.64-8.1-8.38-5.67-15.47,7.64-22.42,14.83-44.97,22.34-67.4,1.93-5.75,5.17-12.25,10.95-13.13,8.99-1.37,9.55,8.19,12.18,13.67,25.22,52.6,51.83,104.67,74.37,158.41,18.5,44.08,44.8,80.91,81.99,110.36,16.65,13.17,25.31,29.91,30.03,50.84,16.38,72.54,34.59,144.63,51.92,216.93,1.68,6.97,5.37,14.25.07,21.91h0ZM950.38,801.43v29.49c0,7.01-5.7,12.7-12.7,12.7h-29.49c-7.01,0-12.71-5.69-12.71-12.7v-29.49c0-7.01,5.7-12.7,12.71-12.7h29.49c7,0,12.7,5.69,12.7,12.7ZM937.68,721.04h-29.49c-7.01,0-12.71,5.69-12.71,12.7v29.49c0,7.01,5.7,12.7,12.71,12.7h29.49c7,0,12.7-5.69,12.7-12.7v-29.49c0-7.01-5.7-12.7-12.7-12.7ZM869.16,721.04h-29.49c-7.01,0-12.7,5.69-12.7,12.7v29.49c0,7.01,5.69,12.7,12.7,12.7h29.49c7.01,0,12.7-5.69,12.7-12.7v-29.49c0-7.01-5.69-12.7-12.7-12.7ZM869.16,788.73h-29.49c-7.01,0-12.7,5.69-12.7,12.7v29.49c0,7.01,5.69,12.7,12.7,12.7h29.49c7.01,0,12.7-5.69,12.7-12.7v-29.49c0-7.01-5.69-12.7-12.7-12.7Z" fill="url(#uuid-63cd2611-ec84-4f70-9576-65560f17023f)" stroke-width="0"/><path d="M1098.45,487.83c-48.39,0-92.46,18.51-125.5,48.85,5,4.54,10.01,9.08,15.01,13.61l241.3,224.51c4.73,4.73,9.51,9.51,14.37,14.38,25.32-31.73,40.46-71.95,40.46-115.71,0-102.53-83.11-185.64-185.64-185.64h0Z" fill="url(#uuid-786901b3-790b-44a4-91f0-c2ee667baef0)" stroke-width="0"/></g></svg>