<?xml version="1.0" encoding="UTF-8"?>
<svg id="uuid-bb1460fe-15f8-4ff3-bd7b-7f84f49f551d" data-name="Layer 2" xmlns="http://www.w3.org/2000/svg" viewBox="0 0 887.03 499.95">
  <g id="uuid-2ae89964-2452-417b-933d-9a2edcb08eaf" data-name="Layer 1">
    <path d="M875.52,483.5c-13.21-12.88-20.21-28.4-24.65-46.35-15.07-61.08-31.56-121.81-47.16-182.77-2.21-8.58-5.96-15.1-12.98-20.71-16.16-12.89-30.38-26.78-39.06-46.89-19.74-45.7-41.89-90.37-62.97-135.48-6.53-13.95-6.37-13.94-16.44-2.09-9.13,10.74-16.62,26.96-28.09,30.65-16.56,5.32-20.67,17.13-27.24,28.82-2.85,5.04-6.18,8.75-12.08,7.49-15.33-3.28-23.18,6.22-30.8,16.81-2.37,3.3-4.43,7.3-9.37,8.56-2.56-7.04-3.47-18.66-7.91-20.2-16.6-5.77-20.38-21.27-29.01-32.86-5-6.72-8.75-13.15-18.59-11.23-5.86,1.14-8.14-3.06-10.17-7.63-5.37-12.01-10.93-23.94-16.45-35.88-4.98-10.73-10-21.42-15.75-33.74-8.67,12.08-13.71,26.61-23.27,30.76-15.14,6.56-18.19,18.88-24.08,30.47-8.94,17.59-17.74,35.27-25.89,53.24-3.67,8.09-7.8,13.24-17.69,12.13-9.43-1.07-15.18,4.01-19.81,12.32-5.55,10.01-10.6,20.62-20.15,30.15-6.65-18-17.05-28.73-37.03-24.86-6.94,1.35-7.93-5.12-9.57-9.94-7.57-22.23-15.4-44.37-22.57-66.72-2.53-7.87-5.38-7.97-11.57-3.51-25.62,18.46-51.36,36.57-63.77,67.55-2.76,6.9-8.21,12.72-11.08,19.59-3.91,9.37-10.38,12.52-19.92,11.4-9.71-1.15-14.94,2.82-18.77,12.41-22.62,56.71-44.68,113.72-69.57,169.45-23.06,51.61-34.56,108.79-72.06,154.03,2.2,2.43,5.72,1.13,8.81,1.14,101.74.11,203.49.07,305.24.3,6.64.02,11.34-2.01,16.17-6.46,49.84-45.89,100.3-91.12,149.58-137.6,10.79-10.19,16.46-8.42,26.01.41,48.37,44.72,97.24,88.88,146.04,133.11,4.29,3.88,7.77,8.29,15.33,8.27,65.45-.21,130.92.32,196.39.38,7.21.01,14.66,2.5,23.46-.7-4.43-5.37-7.57-9.99-11.51-13.82ZM447.94,112.51c.65-14.52,1.21-29.09.65-43.6-.34-9.02,5.36-11.34,11.66-13.04,7.3-1.98,6.28,5.4,8.01,8.87,3.76,7.53,7,15.39,9.62,23.39,3.25,9.92,8.18,16.56,19.99,14.66,6.95-1.12,9.77,4.17,12.83,8.99,14.74,23.28,35.36,43.54,37.32,73.34.31,4.58,3.75,7.22,8.06,8.86,3.94,1.5,7.68,3.53,11.49,5.36,26.48,12.65,30.66,17.6,42.16,51.9-10.37-7.69-18.65-13.08-26.04-19.49-23.38-20.25-49.55-35.41-79.25-44.14-8.23-2.41-12.55-7.11-14.25-15.34-1.33-6.39-4.22-12.46-5.57-18.86-3.38-16.08-9.45-29.16-28.73-30.24-6.38-.36-8.24-4.39-7.95-10.66ZM239.86,144.41c2.9-10.77,6.29-21.4,9.46-32.09,1-.2,1.99-.4,2.99-.59,6.03,15.68,12.55,31.2,17.93,47.11,2.88,8.52,7.6,13.11,16.34,11.01,20.18-4.85,25.38,10.64,32.98,23.17,1.99,3.24,1.58,6.07-.29,9.16-2.66,4.42-6.32,8.71-7.4,13.53-5.35,23.75-25.68,21.51-42.57,25.02-5.41,1.12-5.37-4.45-6.47-7.56-4.99-14.16-9.55-28.46-14.33-42.7-1.04-3.1-1.41-7.56-3.63-8.95-16.91-10.54-8.5-24.17-5.01-37.11ZM692.61,455.46c-.33,0-.64,0-.98-.01-9-.21-16.86-2.66-24.76-10.33-52.97-51.4-107.22-101.48-160.44-152.63-5.1-4.89-9-7.38-13.03-7.25-3.91-.13-7.89,2.23-13.1,7.28-53.03,51.36-107.15,101.58-160.49,152.61-8.73,8.35-17.45,12.68-29.4,12.95-.28,0-.55,0-.85.01-.49,0-.99-.01-1.49-.03-4.68-.14-9.36-.25-14.04-.33-4.51-.09-9.01-.15-13.52-.18-24.67-.21-49.51.16-74.99.17.73-6.87,5.17-9.21,8.23-12.13,59.45-56.88,119.08-113.59,178.46-170.55,5.9-5.66,11.85-8.27,19.88-8.32h.41c.13,0,.26,0,.4.01,9.55.26,19.1.49,28.66.67,3.18.07,6.37.13,9.55.18,4.23.07,8.47.14,12.72.2,1.81.03,3.62.05,5.44.07,5.54.08,11.09.15,16.62.2,1.79.02,3.57.04,5.36.05,7.43.07,14.86.12,22.27.16,1.29.01,2.57.01,3.85.02,7.15.03,12.4,2.19,17.54,7,10.97,10.27,22.1,20.37,33.23,30.44-.05.04-.08.08-.12.12,4.78,4.31,9.54,8.63,14.29,12.95,24.78,23.4,49.58,46.83,74.39,70.25.61.44,1.2.88,1.81,1.32.94.88,1.87,1.76,2.8,2.64.67.48,1.31.95,1.97,1.43.11.1.22.2.32.31,1.07,1.02,2.12,2.04,3.17,3.06l-.32-.29c1.04,1,2.07,2,3.11,3,3.4,3.02,6.77,6.03,10.17,9.05l.78.72c.71.45,1.3,1.02,1.77,1.7l.93.72c.96.99,1.91,1.97,2.88,2.95.78.58,1.56,1.15,2.35,1.73l13.31,13.32c.11-.11.22-.22.32-.34l4.3,4.3c6.25,6.25,12.71,12.72,19.7,19.71-4.82.61-9.26,1.07-13.46,1.09ZM814.55,409.37c-6.02-1.06-7.67-6.59-10.52-10.46-25.97-35.13-51.65-70.48-77.6-105.62-4.29-5.79-8.33-11.76-8.75-18.87-1.2-20.16-12.12-33.73-28.5-43.82-10.48-6.45-15.23-15.22-15.1-27.9.16-13.55-1.81-27.13-2.98-40.68-.64-7.5-.86-15.27-10.97-16.93-5.51-.91-4.5-4.65-3.14-8.59,4.24-12.44,8.23-24.96,12.39-37.41,1.08-3.19,2.87-6.8,6.09-7.29,4.99-.76,5.29,4.55,6.76,7.59,14,29.2,28.77,58.1,41.27,87.93,10.27,24.47,24.87,44.91,45.51,61.26,9.24,7.31,14.05,16.6,16.68,28.22,9.08,40.26,19.19,80.28,28.81,120.41.94,3.87,2.99,7.91.05,12.16Z" stroke-width="0"/>
    <path d="M489.5,444.86v16.36c0,3.9-3.16,7.06-7.05,7.06h-16.37c-3.89,0-7.05-3.16-7.05-7.06v-16.36c0-3.9,3.16-7.05,7.05-7.05h16.37c3.89,0,7.05,3.15,7.05,7.05Z" stroke-width="0"/>
    <path d="M489.5,407.28v16.37c0,3.9-3.16,7.05-7.05,7.05h-16.37c-3.89,0-7.05-3.15-7.05-7.05v-16.37c0-3.89,3.16-7.05,7.05-7.05h16.37c3.89,0,7.05,3.16,7.05,7.05Z" stroke-width="0"/>
    <path d="M527.53,407.28v16.37c0,3.9-3.16,7.05-7.04,7.05h-16.37c-3.9,0-7.06-3.15-7.06-7.05v-16.37c0-3.89,3.16-7.05,7.06-7.05h16.37c3.88,0,7.04,3.16,7.04,7.05Z" stroke-width="0"/>
    <path d="M527.53,444.86v16.36c0,3.9-3.16,7.06-7.04,7.06h-16.37c-3.9,0-7.06-3.16-7.06-7.06v-16.36c0-3.9,3.16-7.05,7.06-7.05h16.37c3.88,0,7.04,3.15,7.04,7.05Z" stroke-width="0"/>
  </g>
</svg>