<?xml version="1.0" standalone="no"?>
<!DOCTYPE svg PUBLIC "-//W3C//DTD SVG 20010904//EN"
 "http://www.w3.org/TR/2001/REC-SVG-20010904/DTD/svg10.dtd">
<svg version="1.0" xmlns="http://www.w3.org/2000/svg"
 width="888.000000pt" height="888.000000pt" viewBox="0 0 888.000000 888.000000"
 preserveAspectRatio="xMidYMid meet">
<metadata>
Created by potrace 1.14, written by Peter Selinger 2001-2017
</metadata>
<g transform="translate(0.000000,888.000000) scale(0.100000,-0.100000)"
fill="#000000" stroke="none">
<path d="M4593 6818 c-77 -127 -112 -166 -176 -197 -92 -45 -117 -82 -289
-431 -87 -179 -176 -359 -196 -400 -48 -97 -77 -117 -171 -118 -98 -1 -151
-33 -197 -118 -58 -109 -91 -164 -128 -214 -72 -99 -67 -97 -100 -30 -78 159
-199 222 -354 185 -40 -10 -63 33 -130 232 -35 103 -68 197 -73 208 -6 12 -11
27 -13 35 -7 43 -110 333 -123 345 -28 29 -44 20 -243 -129 -239 -179 -383
-342 -470 -530 -21 -46 -54 -108 -73 -137 -19 -30 -46 -77 -60 -106 -41 -80
-73 -97 -184 -100 -141 -3 -152 -14 -242 -239 -331 -832 -361 -906 -493 -1219
-44 -104 -91 -215 -105 -245 -13 -30 -28 -64 -33 -75 -5 -11 -21 -47 -35 -80
-38 -84 -79 -187 -137 -345 -27 -74 -61 -166 -76 -205 -14 -38 -27 -74 -28
-80 -1 -5 -28 -73 -59 -150 -112 -275 -223 -482 -351 -652 -29 -40 -50 -74
-45 -77 5 -3 724 -6 1598 -7 l1590 -2 44 22 c24 12 96 70 160 129 146 136 303
280 331 303 19 17 190 173 228 209 9 8 61 56 115 105 55 50 109 99 121 110 11
11 65 61 119 110 183 168 235 216 398 369 64 61 136 121 159 134 73 39 104 23
280 -140 56 -53 117 -108 133 -123 17 -15 53 -48 80 -74 162 -148 261 -238
275 -251 9 -8 61 -55 116 -105 54 -49 104 -94 110 -100 6 -5 48 -44 93 -85 46
-41 98 -88 115 -105 18 -16 70 -64 116 -105 46 -41 94 -84 106 -95 12 -11 59
-54 105 -95 45 -41 103 -94 128 -117 84 -77 -16 -71 1213 -76 609 -2 1113 0
1119 4 13 7 -30 66 -105 144 -90 94 -162 210 -205 331 -17 49 -100 361 -116
439 -10 46 -241 937 -254 980 -11 36 -121 460 -127 489 -21 111 -67 189 -156
266 -244 212 -303 291 -426 571 -33 75 -79 175 -101 224 -23 48 -41 88 -41 90
0 2 -34 74 -75 160 -41 87 -75 158 -75 160 0 1 -36 78 -81 171 -44 93 -96 201
-114 239 -136 288 -145 305 -166 305 -29 0 -82 -60 -216 -247 -66 -92 -86
-108 -215 -168 -72 -33 -122 -89 -190 -212 -50 -90 -82 -124 -116 -124 -9 0
-44 0 -78 1 -98 3 -173 -44 -249 -154 -11 -16 -34 -45 -51 -64 -38 -43 -60
-38 -70 15 -4 21 -15 61 -25 88 -16 43 -25 53 -67 73 -66 32 -126 90 -166 162
-42 77 -125 197 -156 227 -36 35 -78 48 -128 40 -46 -7 -70 16 -114 112 -22
47 -56 120 -75 161 -19 41 -46 100 -60 130 -14 30 -43 93 -65 140 -22 47 -53
115 -70 153 -17 37 -35 67 -39 67 -4 0 -38 -50 -76 -112z m67 -460 c88 -218
120 -300 130 -331 17 -53 79 -117 116 -118 16 -1 52 -2 79 -3 28 -1 55 -5 62
-9 7 -4 50 -63 96 -130 46 -67 113 -165 149 -217 106 -153 167 -293 184 -418
11 -81 13 -87 36 -105 13 -9 64 -36 113 -60 292 -138 344 -191 440 -448 l33
-89 -66 47 c-83 58 -133 97 -253 194 -217 175 -440 297 -690 379 -123 40 -169
81 -185 168 -3 12 -15 57 -29 100 -13 42 -29 99 -35 126 -34 154 -121 243
-254 261 -94 12 -104 27 -100 145 1 47 3 164 3 260 1 116 6 183 14 200 13 28
89 70 124 70 15 0 27 -8 33 -22z m2126 -346 c6 -4 25 -39 42 -78 17 -39 61
-131 98 -205 110 -222 238 -496 309 -664 105 -245 230 -419 424 -588 119 -105
163 -172 195 -297 16 -62 103 -433 112 -475 2 -11 15 -65 29 -120 89 -361 165
-680 165 -695 0 -10 -3 -25 -6 -34 -6 -14 -9 -14 -33 0 -14 8 -37 32 -50 52
-21 31 -610 837 -634 867 -4 6 -44 60 -89 120 -148 202 -159 224 -173 345 -10
79 -58 186 -113 251 -26 31 -85 84 -132 117 -153 109 -179 153 -185 315 -4 95
-14 240 -20 297 -2 14 -7 59 -10 100 -9 102 -34 144 -92 162 -25 7 -49 21 -54
30 -14 25 133 466 162 491 23 18 38 21 55 9z m-4256 -210 c0 -10 4 -22 8 -27
5 -6 17 -32 27 -60 9 -27 23 -63 31 -80 7 -16 27 -68 44 -115 17 -47 35 -93
41 -102 5 -10 9 -23 9 -30 0 -7 11 -37 25 -65 32 -71 72 -95 140 -86 167 21
214 -7 314 -184 23 -40 41 -81 41 -91 0 -10 -18 -46 -39 -80 -22 -34 -45 -80
-52 -104 -28 -104 -89 -172 -181 -200 -65 -20 -264 -52 -277 -44 -5 3 -50 133
-101 288 -91 276 -94 284 -135 320 -77 68 -90 123 -55 243 11 39 22 77 25 85
2 8 23 78 46 155 23 77 44 149 47 160 9 35 42 48 42 17z m2143 -1547 c406 -5
406 -5 495 -88 99 -93 129 -121 206 -191 44 -39 96 -87 117 -106 20 -19 77
-72 125 -117 49 -45 110 -101 135 -125 25 -24 109 -103 187 -177 78 -74 159
-150 179 -169 21 -20 74 -70 118 -112 44 -41 143 -132 219 -200 274 -245 604
-565 594 -576 -4 -4 -50 -7 -103 -7 -128 0 -193 25 -280 108 -35 33 -143 137
-242 231 -98 94 -199 191 -224 215 -26 24 -109 103 -185 175 -77 73 -159 151
-184 174 -39 36 -212 200 -370 350 -26 25 -116 110 -200 190 -83 80 -170 162
-192 183 -53 49 -105 75 -146 71 -48 -4 -61 -14 -309 -254 -198 -190 -550
-525 -732 -696 -41 -38 -98 -91 -126 -119 -66 -62 -315 -298 -364 -344 -20
-18 -82 -78 -137 -131 -164 -158 -221 -182 -424 -180 -69 1 -313 2 -543 3
-230 0 -420 4 -423 8 -9 15 17 53 71 104 30 28 133 127 231 220 97 94 194 186
214 205 20 19 117 112 216 207 98 94 193 183 209 199 17 15 109 102 205 195
96 92 205 196 242 231 128 122 411 393 448 429 49 49 112 90 152 99 18 4 130
6 248 4 118 -2 376 -6 573 -9z"/>
<path d="M4633 2927 c-37 -20 -43 -39 -43 -147 0 -98 2 -108 23 -128 21 -20
34 -22 134 -22 147 0 148 1 148 156 0 147 1 146 -138 149 -58 1 -114 -3 -124
-8z"/>
<path d="M5012 2929 c-32 -12 -39 -41 -41 -153 -1 -89 0 -101 20 -123 21 -21
30 -23 133 -23 61 0 116 4 123 8 22 14 31 57 30 155 0 137 -3 139 -138 142
-58 1 -115 -2 -127 -6z"/>
<path d="M4611 2534 c-18 -23 -21 -41 -21 -129 0 -147 3 -150 154 -150 151 0
150 -2 153 146 3 105 2 111 -22 135 -23 23 -31 24 -134 24 -106 0 -110 -1
-130 -26z"/>
<path d="M4995 2536 c-23 -23 -24 -31 -23 -131 1 -148 3 -149 147 -152 155 -3
156 -2 156 152 0 153 -2 155 -152 155 -97 0 -106 -2 -128 -24z"/>
</g>
</svg>
